<?xml version="1.0" encoding="UTF-8"?>
<!DOCTYPE svg PUBLIC "-//W3C//DTD SVG 1.1//EN" "http://www.w3.org/Graphics/SVG/1.1/DTD/svg11.dtd">
<!-- Creator: CorelDRAW -->
<svg xmlns="http://www.w3.org/2000/svg" xml:space="preserve" width="47.6597mm" height="30.393mm" version="1.1" style="shape-rendering:geometricPrecision; text-rendering:geometricPrecision; image-rendering:optimizeQuality; fill-rule:evenodd; clip-rule:evenodd"
viewBox="0 0 1402.48 894.37"
 xmlns:xlink="http://www.w3.org/1999/xlink"
 xmlns:xodm="http://www.corel.com/coreldraw/odm/2003">
 <defs>
  <style type="text/css">
   <![CDATA[
    .fil0 {fill:white}
   ]]>
  </style>
 </defs>
 <g id="Слой_x0020_1">
  <metadata id="CorelCorpID_0Corel-Layer"/>
  <g id="_1576669169296">
   <g id="_1652760732272">
    <g id="Symbols">
     <g id="header">
      <g id="Group-3">
       <path id="Fill-1" class="fil0" d="M1054.69 13.6c3.94,-11.83 7.89,-11.83 17.75,-11.83l319.49 0c9.86,0 11.83,1.97 9.86,11.83 -3.94,9.86 -92.69,260.33 -104.52,295.83 -1.97,5.92 -7.89,7.89 -11.83,7.89l-280.05 0c-47.33,0 -49.3,0 -69.03,57.19 -37.47,114.39 -112.41,343.16 -126.22,382.6 -1.97,5.92 -3.94,9.86 -9.86,9.86l-209.05 0c-5.92,0 -5.92,-3.94 -5.92,-7.89 19.72,-57.19 153.83,-451.63 157.78,-459.52 5.92,-13.8 11.83,-25.64 31.55,-25.64l86.78 0c53.25,0 106.5,-9.86 132.14,-82.83 0,0 59.17,-167.64 61.14,-177.5l0 0z"/>
       <path id="Fill-3" class="fil0" d="M774.63 1.77c-27.61,-1.97 -104.53,-3.94 -173.55,3.94 -293.85,31.55 -506.85,189.33 -577.85,416.13 -86.78,272.16 88.75,427.96 211.02,471.35 5.92,1.97 11.83,1.97 13.8,-3.94 1.97,-5.92 15.78,-41.42 17.75,-47.33 1.97,-3.94 -1.97,-7.89 -7.89,-9.86 -124.25,-53.25 -165.66,-179.47 -120.3,-305.69 51.28,-140.02 213,-222.86 362.88,-240.6 19.72,-1.97 53.25,-5.92 78.89,-5.92 74.94,-1.97 114.39,-17.75 134.11,-71 19.72,-59.17 65.08,-187.36 67.06,-195.25 1.97,-9.86 0,-11.83 -5.92,-11.83l0 0z"/>
       <path id="Fill-5" class="fil0" d="M630.66 433.68l-136.08 0c-47.33,0 -96.63,33.52 -116.36,90.72 -13.8,37.47 -71,199.19 -80.86,234.69 -1.97,3.94 0,7.89 3.94,7.89l220.88 0c5.92,0 9.86,-3.94 9.86,-7.89 15.78,-45.36 106.5,-309.63 106.5,-315.55 1.97,-3.94 0,-9.86 -7.89,-9.86l0 0z"/>
      </g>
     </g>
    </g>
   </g>
  </g>
 </g>
</svg>
