<?xml version="1.0" encoding="UTF-8"?>
<!DOCTYPE svg PUBLIC "-//W3C//DTD SVG 1.1//EN" "http://www.w3.org/Graphics/SVG/1.1/DTD/svg11.dtd">
<!-- Creator: CorelDRAW -->
<svg xmlns="http://www.w3.org/2000/svg" xml:space="preserve" width="181px" height="115px" version="1.1" style="shape-rendering:geometricPrecision; text-rendering:geometricPrecision; image-rendering:optimizeQuality; fill-rule:evenodd; clip-rule:evenodd"
viewBox="0 0 7.11 4.54"
 xmlns:xlink="http://www.w3.org/1999/xlink"
 xmlns:xodm="http://www.corel.com/coreldraw/odm/2003">
 <defs>
  <style type="text/css">
   <![CDATA[
    .fil0 {fill:black}
   ]]>
  </style>
 </defs>
 <g id="Слой_x0020_1">
  <metadata id="CorelCorpID_0Corel-Layer"/>
  <g id="_1652760732272">
   <g id="Symbols">
    <g id="header">
     <g id="Group-3">
      <path id="Fill-1" class="fil0" d="M5.35 0.07c0.02,-0.06 0.04,-0.06 0.09,-0.06l1.62 0c0.05,0 0.06,0.01 0.05,0.06 -0.02,0.05 -0.47,1.32 -0.53,1.5 -0.01,0.03 -0.04,0.04 -0.06,0.04l-1.42 0c-0.24,0 -0.25,0 -0.35,0.29 -0.19,0.58 -0.57,1.74 -0.64,1.94 -0.01,0.03 -0.02,0.05 -0.05,0.05l-1.06 0c-0.03,0 -0.03,-0.02 -0.03,-0.04 0.1,-0.29 0.78,-2.29 0.8,-2.33 0.03,-0.07 0.06,-0.13 0.16,-0.13l0.44 0c0.27,0 0.54,-0.05 0.67,-0.42 0,0 0.3,-0.85 0.31,-0.9z"/>
      <path id="Fill-3" class="fil0" d="M3.93 0.01c-0.14,-0.01 -0.53,-0.02 -0.88,0.02 -1.49,0.16 -2.57,0.96 -2.93,2.11 -0.44,1.38 0.45,2.17 1.07,2.39 0.03,0.01 0.06,0.01 0.07,-0.02 0.01,-0.03 0.08,-0.21 0.09,-0.24 0.01,-0.02 -0.01,-0.04 -0.04,-0.05 -0.63,-0.27 -0.84,-0.91 -0.61,-1.55 0.26,-0.71 1.08,-1.13 1.84,-1.22 0.1,-0.01 0.27,-0.03 0.4,-0.03 0.38,-0.01 0.58,-0.09 0.68,-0.36 0.1,-0.3 0.33,-0.95 0.34,-0.99 0.01,-0.05 0,-0.06 -0.03,-0.06z"/>
      <path id="Fill-5" class="fil0" d="M3.2 2.2l-0.69 0c-0.24,0 -0.49,0.17 -0.59,0.46 -0.07,0.19 -0.36,1.01 -0.41,1.19 -0.01,0.02 0,0.04 0.02,0.04l1.12 0c0.03,0 0.05,-0.02 0.05,-0.04 0.08,-0.23 0.54,-1.57 0.54,-1.6 0.01,-0.02 0,-0.05 -0.04,-0.05z"/>
     </g>
    </g>
   </g>
  </g>
 </g>
</svg>
